<svg width="118" height="35" viewBox="0 0 118 35" fill="none" xmlns="http://www.w3.org/2000/svg">
<path fill-rule="evenodd" clip-rule="evenodd" d="M35.2645 17.3822C35.2645 20.8201 34.245 24.1808 32.335 27.0393C30.425 29.8978 27.7103 32.1257 24.5341 33.4413C21.3579 34.7569 17.863 35.1012 14.4911 34.4305C11.1193 33.7598 8.02209 32.1043 5.59114 29.6733C3.1602 27.2424 1.5047 24.1452 0.834002 20.7733C0.163305 17.4015 0.507532 13.9065 1.82315 10.7303C3.13877 7.55414 5.36669 4.83941 8.22519 2.92943C11.0837 1.01944 14.4444 0 17.8822 0C20.1649 0 22.4252 0.449602 24.5341 1.32314C26.643 2.19668 28.5592 3.47705 30.1733 5.09114C31.7874 6.70522 33.0678 8.62142 33.9413 10.7303C34.8149 12.8392 35.2645 15.0996 35.2645 17.3822ZM9.37509 19.4359C9.78859 20.931 10.9099 21.6787 12.739 21.6788C13.916 21.6788 14.8067 21.2811 15.4112 20.4858L17.8925 21.9172C16.7152 23.6192 14.9816 24.4701 12.6916 24.47C10.7193 24.47 9.13681 23.8736 7.94415 22.6807C6.79881 21.4624 6.15918 19.8544 6.15475 18.1823C6.15033 16.5101 6.78144 14.8988 7.92032 13.6744C9.09709 12.4741 10.608 11.874 12.453 11.874C13.2622 11.8508 14.067 12.0005 14.8138 12.3132C15.5605 12.6258 16.2319 13.0942 16.7831 13.6871C17.9214 14.8985 18.5345 16.5107 18.4889 18.1724C18.4864 18.5965 18.4464 19.0196 18.3695 19.4367L9.37509 19.4359ZM9.32666 17.05H15.4112C15.2917 16.3301 14.9038 15.6821 14.3257 15.2367C13.7821 14.8411 13.125 14.6319 12.4528 14.6405C11.7168 14.6117 10.993 14.8347 10.4008 15.2727C9.84392 15.7196 9.46336 16.3493 9.32666 17.05ZM23.7914 24.0103C24.5636 24.3227 25.3901 24.4789 26.2231 24.4697L26.2241 24.4695C27.3391 24.4816 28.4363 24.1889 29.3971 23.6228C30.3259 23.0843 31.0923 22.3055 31.6159 21.3682L28.9439 19.8412C28.71 20.3295 28.331 20.7336 27.8586 20.9982C27.3527 21.2819 26.7804 21.426 26.2005 21.4156C25.7761 21.4286 25.3535 21.3537 24.9594 21.1957C24.5653 21.0377 24.2081 20.8 23.9102 20.4974C23.3269 19.8585 23.0036 19.0246 23.0036 18.1594C23.0036 17.2943 23.3269 16.4604 23.9102 15.8215C24.2081 15.5189 24.5653 15.2812 24.9594 15.1231C25.3536 14.9651 25.7761 14.8901 26.2005 14.903C26.7741 14.8949 27.339 15.0433 27.8345 15.3323C28.3058 15.6038 28.6842 16.0112 28.9201 16.5013L31.5672 14.9507C31.0729 14.0109 30.3194 13.2325 29.3961 12.708C28.4329 12.149 27.3366 11.8604 26.2231 11.8728C25.3901 11.8636 24.5636 12.0198 23.7914 12.3322C23.0192 12.6446 22.3167 13.1071 21.7244 13.6929C21.1322 14.2786 20.662 14.9761 20.3411 15.7448C20.0202 16.5135 19.855 17.3382 19.855 18.1712C19.855 19.0042 20.0202 19.829 20.3411 20.5977C20.662 21.3664 21.1322 22.0638 21.7244 22.6496C22.3167 23.2354 23.0192 23.6979 23.7914 24.0103Z" fill="#F7CA11"/>
<path d="M43.2043 22.6449C42.3212 23.5203 41.1988 24.1148 39.9784 24.3535C38.7581 24.5921 37.4944 24.4642 36.3466 23.9858C35.1988 23.5075 34.2183 22.7001 33.5286 21.6655C32.8388 20.6308 32.4708 19.4151 32.4708 18.1717C32.4708 16.9282 32.8388 15.7125 33.5286 14.6779C34.2183 13.6432 35.1988 12.8359 36.3466 12.3575C37.4944 11.8792 38.7581 11.7513 39.9784 11.9899C41.1988 12.2285 42.3212 12.823 43.2043 13.6984C44.3813 14.8898 45.0413 16.497 45.0413 18.1717C45.0413 19.8464 44.3813 21.4536 43.2043 22.6449ZM36.4168 20.5334C36.7157 20.8387 37.0745 21.0789 37.4707 21.239C37.8669 21.3991 38.2919 21.4756 38.719 21.4637C39.1479 21.4749 39.5744 21.3981 39.9725 21.2381C40.3705 21.078 40.7316 20.8382 41.0334 20.5334C41.6313 19.8922 41.9638 19.0482 41.9638 18.1715C41.9638 17.2949 41.6313 16.4508 41.0334 15.8097C40.7316 15.5049 40.3705 15.265 39.9725 15.105C39.5744 14.945 39.1479 14.8682 38.719 14.8793C38.2919 14.8675 37.8669 14.944 37.4707 15.1041C37.0745 15.2642 36.7157 15.5044 36.4168 15.8097C35.826 16.4544 35.4983 17.2971 35.4983 18.1715C35.4983 19.046 35.826 19.8887 36.4168 20.5334Z" fill="#271C47"/>
<path d="M53.8461 11.8733C54.4465 11.8552 55.0442 11.9626 55.6008 12.1885C56.1574 12.4144 56.6609 12.7539 57.0789 13.1853C57.9294 14.0603 58.3548 15.269 58.3549 16.8115V24.1355H55.2775V17.1938C55.2775 16.3993 55.0627 15.7907 54.6332 15.3681C54.4038 15.1531 54.1336 14.9863 53.8386 14.8777C53.5435 14.7691 53.2297 14.7209 52.9157 14.7359C52.5636 14.7197 52.212 14.777 51.8833 14.9044C51.5547 15.0318 51.2562 15.2263 51.007 15.4756C50.5299 15.9687 50.2914 16.7083 50.2914 17.6944V24.1353H47.2137V12.2067H50.2914V13.5426C51.0386 12.4294 52.2235 11.8727 53.8461 11.8725" fill="#271C47"/>
<path d="M68.6168 12.2073H72.0046L67.4717 24.1358H63.9647L59.4315 12.2073H62.8193L65.7101 20.5556L68.6168 12.2073Z" fill="#271C47"/>
<path d="M75.6015 19.4363C76.0146 20.9314 77.1359 21.6791 78.9652 21.6792C80.1425 21.6792 81.0333 21.2815 81.6376 20.4862L84.1189 21.9176C82.9416 23.6196 81.208 24.4705 78.918 24.4704C76.9454 24.4704 75.3628 23.874 74.1703 22.6811C73.0249 21.4628 72.3853 19.8548 72.3809 18.1827C72.3765 16.5105 73.0076 14.8992 74.1464 13.6748C75.323 12.4745 76.834 11.8744 78.6794 11.8744C79.4885 11.8512 80.2933 12.0009 81.0399 12.3136C81.7865 12.6263 82.4578 13.0946 83.009 13.6875C84.1475 14.8987 84.7608 16.5111 84.715 18.1728C84.7125 18.5969 84.6726 19.02 84.5959 19.4371L75.6015 19.4363ZM75.5541 17.0504H81.6366C81.5171 16.3305 81.1292 15.6825 80.5511 15.2371C80.0075 14.8415 79.3506 14.6324 78.6784 14.6409C77.9424 14.6121 77.2186 14.8351 76.6264 15.2731C76.0697 15.7199 75.6893 16.3497 75.553 17.0504" fill="#271C47"/>
<path d="M89.9427 14.2587C90.1961 13.5351 90.6997 12.9258 91.3628 12.5409C92.0338 12.1564 92.7956 11.9586 93.5689 11.9684V15.4038C92.6881 15.2796 91.7923 15.4834 91.0519 15.9764C90.3121 16.4695 89.9423 17.2887 89.9425 18.4338V24.1358H86.8651V12.2072H89.9427V14.2587Z" fill="#271C47"/>
<path d="M97.8159 15.595C97.8159 15.9133 98.0266 16.1717 98.448 16.3702C98.9427 16.5946 99.458 16.7704 99.9867 16.8951C100.602 17.0499 101.207 17.2411 101.8 17.4676C102.41 17.703 102.943 18.1037 103.339 18.6247C103.774 19.2092 103.997 19.9248 103.971 20.6533C103.971 21.8783 103.514 22.8207 102.599 23.4805C101.685 24.1403 100.544 24.4699 99.176 24.4694C96.7265 24.4694 95.0564 23.5232 94.1659 21.6306L96.8381 20.1277C97.1877 21.1616 97.9671 21.6785 99.1763 21.6783C100.274 21.6783 100.822 21.3363 100.822 20.6523C100.822 20.3345 100.612 20.0761 100.19 19.8771C99.6946 19.6522 99.1795 19.4726 98.6514 19.3403C98.0358 19.1777 97.4303 18.9786 96.8383 18.7442C96.2354 18.5067 95.705 18.116 95.2994 17.6107C94.8655 17.0576 94.6416 16.3687 94.6672 15.6662C94.6453 15.1327 94.7521 14.6017 94.9784 14.118C95.2047 13.6343 95.5439 13.2121 95.9675 12.887C96.8979 12.1902 98.0385 11.8323 99.2001 11.8727C100.124 11.8615 101.036 12.0873 101.848 12.5287C102.64 12.9633 103.294 13.6125 103.733 14.4016L101.108 15.8328C100.955 15.4577 100.689 15.1393 100.347 14.9214C100.005 14.7034 99.6043 14.5966 99.1994 14.6157C98.8509 14.6026 98.5066 14.694 98.2104 14.8781C98.0879 14.9525 97.9871 15.0577 97.918 15.1833C97.8489 15.3089 97.8141 15.4504 97.8169 15.5937" fill="#271C47"/>
<path d="M108.385 19.4359C108.799 20.931 109.92 21.6786 111.749 21.6788C112.926 21.6788 113.817 21.2811 114.421 20.4857L116.903 21.9171C115.726 23.6191 113.992 24.47 111.702 24.4699C109.729 24.4699 108.147 23.8735 106.954 22.6806C105.809 21.4625 105.169 19.8546 105.164 18.1825C105.159 16.5103 105.79 14.8989 106.929 13.6743C108.106 12.4741 109.617 11.8739 111.462 11.8739C112.271 11.8507 113.076 12.0004 113.822 12.3131C114.569 12.6258 115.24 13.0942 115.792 13.687C116.93 14.8983 117.543 16.5106 117.498 18.1723C117.495 18.5964 117.455 19.0195 117.378 19.4366L108.385 19.4359ZM108.338 17.0499H114.421C114.302 16.33 113.914 15.682 113.336 15.2366C112.792 14.841 112.135 14.6319 111.463 14.6405C110.727 14.6116 110.003 14.8346 109.411 15.2726C108.854 15.7196 108.474 16.3493 108.338 17.0499Z" fill="#271C47"/>
<path d="M43.2033 22.6456C42.3202 23.5211 41.1978 24.1156 39.9774 24.3542C38.757 24.5928 37.4934 24.4649 36.3456 23.9865C35.1978 23.5082 34.2173 22.7008 33.5275 21.6662C32.8378 20.6315 32.4698 19.4159 32.4698 18.1724C32.4698 16.9289 32.8378 15.7133 33.5275 14.6786C34.2173 13.644 35.1978 12.8366 36.3456 12.3582C37.4934 11.8799 38.757 11.752 39.9774 11.9906C41.1978 12.2292 42.3202 12.8237 43.2033 13.6992C44.3803 14.8905 45.0403 16.4977 45.0403 18.1724C45.0403 19.8471 44.3803 21.4543 43.2033 22.6456ZM36.4158 20.5341C36.7147 20.8394 37.0735 21.0796 37.4697 21.2398C37.8659 21.3999 38.2909 21.4764 38.718 21.4645C39.1468 21.4756 39.5734 21.3988 39.9715 21.2388C40.3695 21.0788 40.7306 20.839 41.0324 20.5341C41.6303 19.893 41.9628 19.0489 41.9628 18.1723C41.9628 17.2956 41.6303 16.4516 41.0324 15.8105C40.7306 15.5056 40.3695 15.2658 39.9715 15.1058C39.5734 14.9458 39.1468 14.8689 38.718 14.8801C38.2909 14.8682 37.8659 14.9447 37.4697 15.1048C37.0735 15.2649 36.7147 15.5051 36.4158 15.8105C35.825 16.4551 35.4973 17.2978 35.4973 18.1723C35.4973 19.0467 35.825 19.8894 36.4158 20.5341Z" fill="#271C47"/>
<path d="M53.8451 11.8733C54.4455 11.8552 55.0431 11.9626 55.5998 12.1885C56.1564 12.4144 56.6598 12.7539 57.0779 13.1853C57.9284 14.0603 58.3537 15.269 58.3539 16.8115V24.1355H55.2765V17.1938C55.2765 16.3993 55.0617 15.7907 54.6322 15.3681C54.4028 15.1531 54.1326 14.9863 53.8376 14.8777C53.5425 14.7691 53.2287 14.7209 52.9147 14.7359C52.5626 14.7197 52.211 14.777 51.8823 14.9044C51.5537 15.0318 51.2552 15.2263 51.006 15.4756C50.5289 15.9687 50.2904 16.7083 50.2904 17.6944V24.1353H47.2127V12.2067H50.2904V13.5426C51.0376 12.4294 52.2225 11.8727 53.8451 11.8725" fill="#271C47"/>
<path d="M68.6159 12.2068H72.0036L67.4707 24.1353H63.9637L59.4305 12.2068H62.8183L65.7091 20.5551L68.6159 12.2068Z" fill="#271C47"/>
<path d="M75.6005 19.4363C76.0136 20.9314 77.1349 21.6791 78.9642 21.6792C80.1415 21.6792 81.0323 21.2815 81.6366 20.4862L84.1179 21.9176C82.9406 23.6196 81.207 24.4705 78.917 24.4704C76.9443 24.4704 75.3618 23.874 74.1693 22.6811C73.0239 21.4628 72.3843 19.8548 72.3799 18.1827C72.3754 16.5105 73.0066 14.8992 74.1454 13.6748C75.322 12.4745 76.833 11.8744 78.6784 11.8744C79.4875 11.8512 80.2923 12.0009 81.0389 12.3136C81.7855 12.6263 82.4568 13.0946 83.008 13.6875C84.1465 14.8987 84.7598 16.5111 84.714 18.1728C84.7115 18.5969 84.6716 19.02 84.5949 19.4371L75.6005 19.4363ZM75.5531 17.0504H81.6356C81.5161 16.3305 81.1282 15.6825 80.55 15.2371C80.0065 14.8415 79.3496 14.6324 78.6774 14.6409C77.9414 14.6121 77.2176 14.8351 76.6254 15.2731C76.0687 15.7199 75.6883 16.3497 75.552 17.0504" fill="#271C47"/>
<path d="M89.9428 14.2587C90.1961 13.5351 90.6997 12.9258 91.3628 12.5409C92.0338 12.1564 92.7956 11.9586 93.5689 11.9684V15.4038C92.6881 15.2796 91.7923 15.4834 91.0519 15.9764C90.3121 16.4695 89.9423 17.2887 89.9425 18.4338V24.1358H86.8651V12.2072H89.9428V14.2587Z" fill="#271C47"/>
<path d="M97.8149 15.5952C97.8149 15.9135 98.0256 16.1719 98.447 16.3704C98.9417 16.5948 99.457 16.7706 99.9857 16.8953C100.601 17.0502 101.206 17.2413 101.799 17.4679C102.409 17.7032 102.942 18.1039 103.338 18.625C103.773 19.2094 103.996 19.9251 103.97 20.6536C103.97 21.8785 103.513 22.8209 102.598 23.4807C101.684 24.1405 100.543 24.4702 99.175 24.4697C96.7255 24.4697 95.0554 23.5234 94.1649 21.6309L96.8371 20.1279C97.1867 21.1618 97.9661 21.6787 99.1753 21.6785C100.273 21.6785 100.821 21.3365 100.821 20.6526C100.821 20.3348 100.611 20.0764 100.189 19.8774C99.6936 19.6525 99.1785 19.4728 98.6504 19.3406C98.0348 19.1779 97.4293 18.9788 96.8373 18.7444C96.2344 18.5069 95.704 18.1162 95.2983 17.6109C94.8645 17.0578 94.6406 16.3689 94.6662 15.6665C94.6443 15.1329 94.751 14.6019 94.9774 14.1183C95.2037 13.6346 95.5429 13.2124 95.9665 12.8873C96.8969 12.1904 98.0375 11.8326 99.1991 11.873C100.123 11.8617 101.035 12.0876 101.847 12.529C102.639 12.9636 103.293 13.6127 103.732 14.4019L101.107 15.8331C100.954 15.4579 100.688 15.1395 100.346 14.9216C100.004 14.7037 99.6033 14.5969 99.1984 14.6159C98.8499 14.6029 98.5056 14.6943 98.2094 14.8784C98.0869 14.9527 97.9861 15.058 97.917 15.1835C97.8479 15.3091 97.8131 15.4507 97.8159 15.594" fill="#271C47"/>
<path d="M108.384 19.4356C108.798 20.9307 109.919 21.6783 111.748 21.6785C112.925 21.6785 113.816 21.2808 114.42 20.4854L116.902 21.9169C115.725 23.6189 113.991 24.4698 111.701 24.4696C109.728 24.4696 108.146 23.8732 106.953 22.6804C105.808 21.4623 105.168 19.8544 105.163 18.1822C105.158 16.5101 105.789 14.8986 106.928 13.6741C108.105 12.4738 109.616 11.8737 111.461 11.8737C112.27 11.8505 113.075 12.0002 113.821 12.3129C114.568 12.6255 115.239 13.0939 115.791 13.6868C116.929 14.898 117.542 16.5104 117.497 18.172C117.494 18.5962 117.454 19.0192 117.377 19.4364L108.384 19.4356ZM108.337 17.0497H114.42C114.301 16.3297 113.913 15.6818 113.335 15.2364C112.791 14.8408 112.134 14.6316 111.462 14.6402C110.726 14.6114 110.002 14.8344 109.41 15.2724C108.853 15.7193 108.473 16.349 108.337 17.0497Z" fill="#271C47"/>
</svg>
