<svg width="21" height="20" viewBox="0 0 21 20" fill="none" xmlns="http://www.w3.org/2000/svg">
<g clip-path="url(#clip0_201_70)">
<path d="M4.02571 15.3138C4.04519 15.3959 4.08109 15.4733 4.13126 15.5412C4.18142 15.6091 4.2448 15.6662 4.3176 15.709C4.39039 15.7518 4.47108 15.7794 4.55483 15.7902C4.63857 15.801 4.72363 15.7947 4.80489 15.7718C8.53061 14.7431 12.4654 14.7427 16.1913 15.7707C16.2725 15.7936 16.3576 15.7999 16.4413 15.7891C16.525 15.7783 16.6056 15.7507 16.6784 15.7079C16.7512 15.6652 16.8146 15.6081 16.8647 15.5402C16.9149 15.4724 16.9508 15.395 16.9703 15.3129L18.9616 6.85067C18.9883 6.73738 18.9828 6.6189 18.9457 6.50857C18.9087 6.39825 18.8416 6.30045 18.752 6.22621C18.6623 6.15196 18.5538 6.10421 18.4385 6.08834C18.3232 6.07247 18.2057 6.0891 18.0994 6.13637L14.1475 7.89275C14.0048 7.95617 13.8436 7.96388 13.6955 7.91435C13.5474 7.86482 13.4232 7.76165 13.3474 7.62514L11.0464 3.4834C10.9923 3.38597 10.9131 3.30478 10.817 3.24826C10.7209 3.19173 10.6115 3.16193 10.5 3.16193C10.3886 3.16193 10.2791 3.19173 10.1831 3.24826C10.087 3.30478 10.0078 3.38597 9.95368 3.4834L7.65272 7.62514C7.57688 7.76165 7.45269 7.86482 7.3046 7.91435C7.1565 7.96388 6.99523 7.95617 6.85253 7.89275L2.90008 6.1361C2.79375 6.08885 2.67634 6.07221 2.56107 6.08807C2.44579 6.10392 2.33724 6.15164 2.24762 6.22586C2.158 6.30007 2.09088 6.39783 2.05381 6.50812C2.01674 6.61842 2.01119 6.73687 2.0378 6.85014L4.02571 15.3138Z" stroke="#9F9F9F" stroke-width="2" stroke-linecap="round" stroke-linejoin="round"/>
</g>
<defs>
<clipPath id="clip0_201_70">
<rect width="20" height="20" fill="white" transform="translate(0.5)"/>
</clipPath>
</defs>
</svg>
