<svg width="25" height="25" viewBox="0 0 25 25" fill="none" xmlns="http://www.w3.org/2000/svg">
<path d="M17.5 2.5H7.5C4.73858 2.5 2.5 4.73858 2.5 7.5V17.5C2.5 20.2614 4.73858 22.5 7.5 22.5H17.5C20.2614 22.5 22.5 20.2614 22.5 17.5V7.5C22.5 4.73858 20.2614 2.5 17.5 2.5Z" stroke="#4A4A4A" stroke-width="2" stroke-linecap="round" stroke-linejoin="round"/>
<path d="M16.5 11.8698C16.6234 12.7021 16.4813 13.552 16.0938 14.2988C15.7063 15.0456 15.0931 15.6512 14.3416 16.0295C13.5901 16.4077 12.7384 16.5394 11.9078 16.4057C11.0771 16.2721 10.3098 15.8799 9.71484 15.285C9.11991 14.6901 8.72773 13.9227 8.59406 13.092C8.4604 12.2614 8.59206 11.4097 8.97032 10.6582C9.34858 9.90667 9.95418 9.29355 10.701 8.90605C11.4478 8.51856 12.2978 8.3764 13.13 8.49981C13.9789 8.6257 14.7648 9.02128 15.3717 9.62812C15.9785 10.235 16.3741 11.0209 16.5 11.8698Z" stroke="#4A4A4A" stroke-width="2" stroke-linecap="round" stroke-linejoin="round"/>
<path d="M18 7H18.01" stroke="#4A4A4A" stroke-width="2" stroke-linecap="round" stroke-linejoin="round"/>
</svg>
